# xmcd CD database file
#
# Track frame offsets:
#	150
#	17672
#	37427
#	54967
#
# Disc length: 994 seconds
#
# Revision: 0
# Processed by: cddbd v1.5PL3 Copyright (c) Steve Scherf et al.
# Submitted via: CDex 1.51
#
DISCID=2e03e004
DTITLE=知念里奈 - Break out Emotion
DYEAR=1998
DGENRE=JPop
TTITLE0=Break out Emotion
TTITLE1=Pleasure
TTITLE2=Break out Emotion [Backing Track]
TTITLE3=Pleasure [Backing Track]
EXTD=YEAR: 1998
EXTT0=
EXTT1=
EXTT2=
EXTT3=
PLAYORDER=
